<svg width="538" height="61" viewBox="0 0 538 61" fill="none" xmlns="http://www.w3.org/2000/svg">
<path d="M537.53 46.0779H523.224V60.3843H537.53V46.0779Z" fill="#EF4D25"/>
<path d="M0 48.7747V21.2998C0 13.5672 3.83469 9.69043 11.5251 9.69043H31.9416L35.6921 12.6191V16.4327H11.6094C8.82816 16.4327 7.41651 17.8023 7.41651 20.5413V49.4911C7.41651 52.2301 8.80709 53.5997 11.6094 53.5997H35.6921V57.4133L31.9416 60.342H11.5251C3.83469 60.342 0 56.4652 0 48.7326V48.7747Z" fill="white"/>
<path d="M45.1104 48.7747V21.2998C45.1104 13.5672 48.945 9.69043 56.6355 9.69043H73.6809C81.3714 9.69043 85.2061 13.5672 85.2061 21.2998V48.7747C85.2061 56.5073 81.3714 60.3841 73.6809 60.3841H56.6355C48.945 60.3841 45.1104 56.5073 45.1104 48.7747ZM52.5269 49.5121C52.5269 52.2512 53.9175 53.6208 56.7198 53.6208H73.6177C76.3989 53.6208 77.8106 52.2512 77.8106 49.5121V20.5624C77.8106 17.8233 76.42 16.4538 73.6177 16.4538H56.7198C53.9386 16.4538 52.5269 17.8233 52.5269 20.5624V49.5121Z" fill="white"/>
<path d="M130.316 60.384V21.5314L105.559 60.384H97.4053V9.71133H104.822V48.5638L129.579 9.71133H137.733V60.384H130.316Z" fill="white"/>
<path d="M149.932 48.7747V21.2998C149.932 13.5672 153.767 9.69043 161.457 9.69043H181.874L185.624 12.6191V16.4327H161.542C158.76 16.4327 157.349 17.8023 157.349 20.5413V49.4911C157.349 52.2301 158.739 53.5997 161.542 53.5997H185.624V57.4133L181.874 60.342H161.457C153.767 60.342 149.932 56.4652 149.932 48.7326V48.7747Z" fill="white"/>
<path d="M195.758 60.3841V53.6208H221.843V37.3128H197.971V30.5494H221.843V16.4538H195.758V9.69043H229.259V60.363H195.758V60.3841Z" fill="white"/>
<path d="M239.394 60.384V9.71133H263.561C271.251 9.71133 275.086 13.5881 275.086 21.3207V30.9496C275.086 38.64 271.251 42.4747 263.561 42.4747H246.811V60.4051H239.394V60.384ZM246.811 35.7114H263.477C266.258 35.7114 267.67 34.3207 267.67 31.5185V20.5833C267.67 17.8442 266.279 16.4747 263.477 16.4747H246.811V35.7114Z" fill="white"/>
<path d="M281.112 16.4538V9.69043H321.502V16.4538H305.047V60.3841H297.546V16.4538H281.091H281.112Z" fill="white"/>
<path d="M334.25 60.384V9.71133H347.039V48.8588H367.54V60.384H334.271H334.25Z" fill="white"/>
<path d="M374.219 58.0451L388.547 9.71124H407.636L421.963 58.0451L420.425 60.405H409.701L407.193 51.3661H388.968L386.461 60.405H375.736L374.198 58.0451H374.219ZM392.36 39.8198H403.822L398.534 21.2363H397.649L392.36 39.8198Z" fill="white"/>
<path d="M429.506 60.3839V9.71124H453.736C462.354 9.71124 466.673 14.0305 466.673 22.648V26.6934C466.673 28.358 466.188 29.7696 465.198 30.9495L462.628 34.0257L465.704 36.5962C467.326 37.9236 468.127 39.8831 468.127 42.4746V47.4681C468.127 56.0857 463.807 60.405 455.19 60.405H429.485L429.506 60.3839ZM442.274 28.8004H453.062C453.61 28.8004 453.863 28.5265 453.863 27.9998V22.0581C453.863 21.5103 453.589 21.2574 453.062 21.2574H442.274V28.8214V28.8004ZM442.274 48.8587H454.537C455.085 48.8587 455.337 48.5848 455.337 48.0581V41.1472C455.337 40.5994 455.064 40.3466 454.537 40.3466H442.274V48.8587Z" fill="white"/>
<path d="M476.723 56.486V49.3855H499.5C500.026 49.3855 500.3 49.1116 500.3 48.5848V43.6124C500.3 42.9382 500.005 42.5379 499.415 42.4325L485.867 39.6513C479.757 38.4714 476.702 34.4049 476.702 27.4098V23.238C476.702 14.6415 481 10.3433 489.597 10.3433H505.863L511.572 14.7469V21.8474H490.25C489.702 21.8474 489.449 22.1213 489.449 22.648V27.3255C489.449 27.9576 489.744 28.3579 490.334 28.5054L503.882 31.1391C509.992 32.4033 513.047 36.5119 513.047 43.4438V47.9949C513.047 56.5913 508.749 60.8895 500.153 60.8895H482.433L476.723 56.486Z" fill="white"/>
<path d="M515.818 12.0002V2.76807H520.367C521.937 2.76807 522.722 3.55302 522.722 5.12292V6.67499C522.722 7.76321 522.347 8.47681 521.598 8.81576L522.989 11.5319L522.722 12.0002H520.715L519.189 9.01646H518.146V12.0002H515.818ZM518.146 6.91582H520.246C520.344 6.91582 520.393 6.86676 520.393 6.76864V5.01588C520.393 4.91776 520.344 4.8687 520.246 4.8687H518.146V6.91582Z" fill="white"/>
</svg>
