<svg width="944" height="352" viewBox="0 0 944 352" fill="none" xmlns="http://www.w3.org/2000/svg">
<path d="M0 114.61V34.0404C0 11.3522 11.271 0 33.8293 0H93.7248L104.72 8.62379V19.8298H34.0404C25.8551 19.8298 21.7625 23.8575 21.7625 31.8966V116.787C21.7625 124.826 25.8551 128.853 34.0404 128.853H104.704V140.059L93.7086 148.683H33.8293C11.271 148.683 0 137.331 0 114.643V114.61Z" fill="#231F20"/>
<path d="M132.28 114.61V34.0404C132.28 11.3522 143.567 0 166.109 0H216.098C238.64 0 249.927 11.3522 249.927 34.0404V114.627C249.927 137.315 238.656 148.667 216.098 148.667H166.109C143.551 148.667 132.28 137.315 132.28 114.627V114.61ZM154.043 116.77C154.043 124.809 158.135 128.837 166.32 128.837H215.871C224.056 128.837 228.149 124.809 228.149 116.77V31.8804C228.149 23.8413 224.056 19.8136 215.871 19.8136H166.32C158.135 19.8136 154.043 23.8413 154.043 31.8804V116.77Z" fill="#231F20"/>
<path d="M382.208 148.651V34.69L309.596 148.667H285.673V0H307.436V113.977L380.048 0H403.97V148.651H382.208Z" fill="#231F20"/>
<path d="M439.732 114.61V34.0404C439.732 11.3522 451.003 0 473.545 0H533.44L544.435 8.62379V19.8298H473.772C465.587 19.8298 461.494 23.8575 461.494 31.8966V116.787C461.494 124.826 465.587 128.853 473.772 128.853H544.435V140.059L533.44 148.683H473.545C450.987 148.683 439.716 137.331 439.716 114.643L439.732 114.61Z" fill="#231F20"/>
<path d="M574.156 148.651V128.837H650.633V81.0084H580.62V61.1785H650.633V19.8136H574.156V0H672.395V148.651H574.156Z" fill="#231F20"/>
<path d="M702.132 148.651V0H773.023C795.565 0 806.852 11.3522 806.852 34.0404V62.2667C806.852 84.8249 795.581 96.096 773.023 96.096H723.895V148.667H702.132V148.651ZM723.895 76.2661H772.795C780.98 76.2661 785.073 72.1735 785.073 63.9882V31.8804C785.073 23.8413 780.98 19.8136 772.795 19.8136H723.895V76.2661Z" fill="#231F20"/>
<path d="M824.506 19.8136V0H942.997V19.8136H894.746V148.651H872.773V19.8136H824.522H824.506Z" fill="#231F20"/>
<path d="M596.227 308.605H554.245V350.587H596.227V308.605Z" fill="#EF4D25"/>
<path d="M0 350.587V201.936H37.4834V316.774H97.5901V350.603H0V350.587Z" fill="#231F20"/>
<path d="M117.241 343.685L159.256 201.92H215.27L257.285 343.685L252.753 350.587H221.295L213.971 324.082H160.539L153.214 350.587H121.756L117.225 343.685H117.241ZM170.462 290.253H204.064L188.554 235.749H185.972L170.462 290.253Z" fill="#231F20"/>
<path d="M279.372 350.587V201.936H350.473C375.76 201.936 388.395 214.572 388.395 239.858V251.714C388.395 256.602 386.966 260.76 384.092 264.203L376.54 273.249L385.586 280.801C390.328 284.682 392.699 290.432 392.699 298.032V312.681C392.699 337.952 380.064 350.603 354.777 350.603H279.372V350.587ZM316.871 257.934H348.541C350.116 257.934 350.912 257.155 350.912 255.563V238.121C350.912 236.529 350.116 235.749 348.541 235.749H316.871V257.934ZM316.871 316.758H352.845C354.42 316.758 355.216 315.978 355.216 314.387V294.135C355.216 292.559 354.42 291.763 352.845 291.763H316.871V316.758Z" fill="#231F20"/>
<path d="M417.888 339.121V318.284H484.702C486.278 318.284 487.073 317.505 487.073 315.913V301.297C487.073 299.299 486.213 298.146 484.491 297.854L444.75 289.685C426.853 286.242 417.888 274.288 417.888 253.809V241.564C417.888 216.358 430.491 203.755 455.696 203.755H503.395L520.156 216.65V237.487H457.629C456.054 237.487 455.274 238.267 455.274 239.842V253.598C455.274 255.466 456.135 256.602 457.856 257.041L497.597 264.771C515.495 268.491 524.459 280.525 524.459 300.858V314.176C524.459 339.381 511.857 351.984 486.651 351.984H434.665L417.904 339.089L417.888 339.121Z" fill="#231F20"/>
<path d="M528.412 202V189.507H534.568C536.693 189.507 537.755 190.569 537.755 192.693V194.794C537.755 196.266 537.248 197.232 536.234 197.691L538.117 201.366L537.755 202H535.039L532.975 197.962H531.563V202H528.412ZM531.563 195.12H534.405C534.538 195.12 534.605 195.053 534.605 194.92V192.549C534.605 192.416 534.538 192.349 534.405 192.349H531.563V195.12Z" fill="#231F20"/>
</svg>
