<svg width="124" height="46" viewBox="0 0 124 46" fill="none" xmlns="http://www.w3.org/2000/svg">
<path d="M7.62939e-06 14.9803V4.45074C7.62939e-06 1.48904 1.47267 0 4.41802 0H12.2395L13.6713 1.12905V2.59355H4.44256C3.37078 2.59355 2.83897 3.11716 2.83897 4.17257V15.2667C2.83897 16.3139 3.37078 16.8458 4.44256 16.8458H13.6713V18.3102L12.2395 19.4393H4.41802C1.47267 19.4393 7.62939e-06 17.9584 7.62939e-06 14.9885V14.9803Z" fill="#231F20"/>
<path d="M17.2793 14.9804V4.45077C17.2793 1.48906 18.752 2.28882e-05 21.6974 2.28882e-05H28.2262C31.1716 2.28882e-05 32.6442 1.48088 32.6442 4.45077V14.9804C32.6442 17.9421 31.1716 19.4311 28.2262 19.4311H21.6974C18.752 19.4311 17.2793 17.9503 17.2793 14.9804ZM20.1265 15.2667C20.1265 16.314 20.6583 16.8458 21.7301 16.8458H28.2016C29.2734 16.8458 29.8052 16.3221 29.8052 15.2667V4.1726C29.8052 3.12536 29.2734 2.59357 28.2016 2.59357H21.7301C20.6583 2.59357 20.1265 3.11718 20.1265 4.1726V15.2667Z" fill="#231F20"/>
<path d="M49.9318 19.4311V4.54078L40.4494 19.4311H37.3241V0.00821304H40.163V14.8986L49.6454 0.00821304H52.7707V19.4311H49.9318Z" fill="#231F20"/>
<path d="M57.4424 14.9804V4.45077C57.4424 1.48906 58.915 2.28882e-05 61.8604 2.28882e-05H69.6819L71.1137 1.12908V2.59357H61.8849C60.8131 2.59357 60.2814 3.11718 60.2814 4.1726V15.2667C60.2814 16.314 60.8131 16.8458 61.8849 16.8458H71.1137V18.3102L69.6819 19.4393H61.8604C58.915 19.4393 57.4424 17.9584 57.4424 14.9886V14.9804Z" fill="#231F20"/>
<path d="M75.0081 19.4311V16.8458H84.9977V10.5951H75.8508V8.00154H84.9977V2.59357H75.0081V0.00821304H87.8449V19.4311H75.0081Z" fill="#231F20"/>
<path d="M91.7311 19.4311V0.00821304H100.993C103.938 0.00821304 105.411 1.48907 105.411 4.45896V8.14883C105.411 11.0942 103.938 12.5668 100.993 12.5668H94.5782V19.4311H91.7393H91.7311ZM94.5701 9.97329H100.96C102.032 9.97329 102.563 9.44149 102.563 8.36972V4.1726C102.563 3.12537 102.032 2.59357 100.96 2.59357H94.5701V9.96512V9.97329Z" fill="#231F20"/>
<path d="M107.718 2.60177V0.016407H123.197V2.60177H116.889V19.4311H114.018V2.60177H107.71H107.718Z" fill="#231F20"/>
<path d="M77.888 40.3267H72.4064V45.8084H77.888V40.3267Z" fill="#EF4D25"/>
<path d="M0 45.8083V26.3854H4.90072V41.3903H12.755V45.8083H0Z" fill="#231F20"/>
<path d="M15.3158 44.9083L20.8056 26.3854H28.1198L33.6096 44.9083L33.0206 45.8083H28.9134L27.9562 42.3475H20.9774L20.0201 45.8083H15.913L15.3239 44.9083H15.3158ZM22.27 37.9295H26.6635L24.6345 30.8116H24.2991L22.27 37.9295Z" fill="#231F20"/>
<path d="M36.4977 45.8083V26.3854H45.7837C49.089 26.3854 50.7417 28.038 50.7417 31.3352V32.8815C50.7417 33.5196 50.5535 34.0596 50.1772 34.5096L49.1954 35.6878L50.3735 36.6695C50.9953 37.1768 51.3062 37.9295 51.3062 38.9194V40.8339C51.3062 44.1392 49.6536 45.7837 46.3564 45.7837H36.5059L36.4977 45.8083ZM41.3984 33.7078H45.5383C45.7428 33.7078 45.8492 33.6015 45.8492 33.3969V31.1143C45.8492 30.9097 45.7428 30.8034 45.5383 30.8034H41.3984V33.6996V33.7078ZM41.3984 41.3903H46.1028C46.3073 41.3903 46.4137 41.2839 46.4137 41.0794V38.4367C46.4137 38.2322 46.3073 38.1258 46.1028 38.1258H41.3984V41.3903Z" fill="#231F20"/>
<path d="M54.5952 44.3111V41.5866H63.3249C63.5294 41.5866 63.6358 41.4803 63.6358 41.2757V39.3695C63.6358 39.1077 63.5212 38.9604 63.3003 38.9195L58.1051 37.8559C55.7651 37.4059 54.5952 35.8432 54.5952 33.1679V31.5643C54.5952 28.2671 56.2397 26.6227 59.5368 26.6227H65.7711L67.9638 28.308V31.0325H59.7986C59.5941 31.0325 59.4877 31.1388 59.4877 31.3434V33.1433C59.4877 33.3888 59.6023 33.536 59.8232 33.5933L65.0184 34.6078C67.3583 35.0905 68.5283 36.6695 68.5283 39.3204V41.063C68.5283 44.3602 66.8838 46.0047 63.5867 46.0047H56.796L54.6034 44.3193L54.5952 44.3111Z" fill="#231F20"/>
<path d="M69.0192 25.1255V24.7573H70.3773V25.1255H69.9028V26.3854H69.4937V25.1255H69.0192Z" fill="#231F20"/>
<path d="M70.6228 26.3854V24.7573H71.0973L71.5145 25.6491L71.9318 24.7573H72.4063V26.3854H71.9973V25.51L71.6782 26.1891H71.3509L71.0318 25.51V26.3854H70.6228Z" fill="#231F20"/>
</svg>
