<svg width="1512" height="729" viewBox="0 0 1512 729" fill="none" xmlns="http://www.w3.org/2000/svg">
<mask id="mask0_151_43" style="mask-type:alpha" maskUnits="userSpaceOnUse" x="0" y="0" width="1512" height="729">
<rect width="1512" height="729" fill="white"/>
</mask>
<g mask="url(#mask0_151_43)">
<rect x="16.3527" y="-778.314" width="1476.1" height="1501.51" fill="white" fill-opacity="0.05"/>
<line y1="-1.0078" x2="1476.98" y2="-1.0078" transform="matrix(-1 0 0 1 1496.08 10.7334)" stroke="#BDBDBD" stroke-opacity="0.35" stroke-width="2.01559"/>
<line y1="-0.503898" x2="1476.98" y2="-0.503898" transform="matrix(-1 0 0 1 1496.08 152.926)" stroke="#BDBDBD" stroke-opacity="0.35" stroke-width="1.0078"/>
<line y1="-0.503898" x2="1476.98" y2="-0.503898" transform="matrix(-1 0 0 1 1496.08 225.474)" stroke="#BDBDBD" stroke-opacity="0.35" stroke-width="1.0078"/>
<line y1="-0.503898" x2="1476.98" y2="-0.503898" transform="matrix(-1 0 0 1 1496.08 296.57)" stroke="#BDBDBD" stroke-opacity="0.35" stroke-width="1.0078"/>
<line y1="-0.503898" x2="1498.83" y2="-0.503898" transform="matrix(0 -1 -1 0 1426.05 724.241)" stroke="#BDBDBD" stroke-opacity="0.35" stroke-width="1.0078"/>
<line y1="-0.503898" x2="1498.83" y2="-0.503898" transform="matrix(0 -1 -1 0 1346.47 724.241)" stroke="#BDBDBD" stroke-opacity="0.35" stroke-width="1.0078"/>
<line y1="-0.503898" x2="1498.83" y2="-0.503898" transform="matrix(0 -1 -1 0 1268.49 724.241)" stroke="#BDBDBD" stroke-opacity="0.35" stroke-width="1.0078"/>
<line y1="-0.503898" x2="1498.83" y2="-0.503898" transform="matrix(0 -1 -1 0 1190.5 724.241)" stroke="#BDBDBD" stroke-opacity="0.35" stroke-width="1.0078"/>
<line y1="-0.503898" x2="1498.83" y2="-0.503898" transform="matrix(0 -1 -1 0 1056.81 724.241)" stroke="#BDBDBD" stroke-opacity="0.35" stroke-width="1.0078"/>
<line y1="-0.503898" x2="1498.83" y2="-0.503898" transform="matrix(0 -1 -1 0 977.229 724.241)" stroke="#BDBDBD" stroke-opacity="0.35" stroke-width="1.0078"/>
<line y1="-0.503898" x2="1498.83" y2="-0.503898" transform="matrix(0 -1 -1 0 899.242 724.241)" stroke="#BDBDBD" stroke-opacity="0.35" stroke-width="1.0078"/>
<line y1="-0.503898" x2="1498.83" y2="-0.503898" transform="matrix(0 -1 -1 0 821.255 724.241)" stroke="#BDBDBD" stroke-opacity="0.35" stroke-width="1.0078"/>
<line y1="-0.503898" x2="1498.83" y2="-0.503898" transform="matrix(0 -1 -1 0 687.562 724.241)" stroke="#BDBDBD" stroke-opacity="0.35" stroke-width="1.0078"/>
<line y1="-0.503898" x2="1498.83" y2="-0.503898" transform="matrix(0 -1 -1 0 607.983 724.241)" stroke="#BDBDBD" stroke-opacity="0.35" stroke-width="1.0078"/>
<line y1="-0.503898" x2="1498.83" y2="-0.503898" transform="matrix(0 -1 -1 0 529.996 724.241)" stroke="#BDBDBD" stroke-opacity="0.35" stroke-width="1.0078"/>
<line y1="-0.503898" x2="1498.83" y2="-0.503898" transform="matrix(0 -1 -1 0 452.009 724.241)" stroke="#BDBDBD" stroke-opacity="0.35" stroke-width="1.0078"/>
<line y1="-0.503898" x2="1498.83" y2="-0.503898" transform="matrix(0 -1 -1 0 313.541 724.241)" stroke="#BDBDBD" stroke-opacity="0.35" stroke-width="1.0078"/>
<line y1="-0.503898" x2="1498.83" y2="-0.503898" transform="matrix(0 -1 -1 0 233.962 724.241)" stroke="#BDBDBD" stroke-opacity="0.35" stroke-width="1.0078"/>
<line y1="-0.503898" x2="1498.83" y2="-0.503898" transform="matrix(0 -1 -1 0 155.975 724.241)" stroke="#BDBDBD" stroke-opacity="0.35" stroke-width="1.0078"/>
<line y1="-0.503898" x2="1498.83" y2="-0.503898" transform="matrix(0 -1 -1 0 77.9873 724.241)" stroke="#BDBDBD" stroke-opacity="0.35" stroke-width="1.0078"/>
<line y1="-1.0078" x2="1476.98" y2="-1.0078" transform="matrix(-1 0 0 1 1492.9 369.118)" stroke="#BDBDBD" stroke-opacity="0.35" stroke-width="2.01559"/>
<line y1="-0.503898" x2="1476.98" y2="-0.503898" transform="matrix(-1 0 0 1 1492.9 83.2809)" stroke="#BDBDBD" stroke-opacity="0.35" stroke-width="1.0078"/>
<line y1="-1.0078" x2="1498.83" y2="-1.0078" transform="matrix(0 -1 -1 0 1492.9 724.6)" stroke="#BDBDBD" stroke-opacity="0.35" stroke-width="2.01559"/>
<line y1="-1.0078" x2="35.0147" y2="-1.0078" transform="matrix(-1 0 0 1 1512 724.241)" stroke="black" stroke-opacity="0.18" stroke-width="2.01559"/>
<line y1="-1.0078" x2="31.9209" y2="-1.0078" transform="matrix(0 -1 -1 0 1492.9 738.75)" stroke="black" stroke-opacity="0.18" stroke-width="2.01559"/>
<line y1="-0.503898" x2="1476.98" y2="-0.503898" transform="matrix(-1 0 0 1 1492.9 508.05)" stroke="#BDBDBD" stroke-opacity="0.35" stroke-width="1.0078"/>
<line y1="-0.503898" x2="1476.98" y2="-0.503898" transform="matrix(-1 0 0 1 1492.9 580.597)" stroke="#BDBDBD" stroke-opacity="0.35" stroke-width="1.0078"/>
<line y1="-0.503898" x2="1476.98" y2="-0.503898" transform="matrix(-1 0 0 1 1492.9 651.693)" stroke="#BDBDBD" stroke-opacity="0.35" stroke-width="1.0078"/>
<line y1="-1.0078" x2="1476.98" y2="-1.0078" transform="matrix(-1 0 0 1 1492.9 724.241)" stroke="#BDBDBD" stroke-opacity="0.35" stroke-width="2.01559"/>
<line y1="-0.503898" x2="1476.98" y2="-0.503898" transform="matrix(-1 0 0 1 1492.9 438.404)" stroke="#BDBDBD" stroke-opacity="0.35" stroke-width="1.0078"/>
<line y1="-1.0078" x2="1498.83" y2="-1.0078" transform="matrix(0 -1 -1 0 1123.65 724.241)" stroke="#BDBDBD" stroke-opacity="0.35" stroke-width="2.01559"/>
<line y1="-1.0078" x2="1498.83" y2="-1.0078" transform="matrix(0 -1 -1 0 15.9164 724.6)" stroke="#BDBDBD" stroke-opacity="0.35" stroke-width="2.01559"/>
<line y1="-1.0078" x2="1498.83" y2="-1.0078" transform="matrix(0 -1 -1 0 754.408 724.241)" stroke="#BDBDBD" stroke-opacity="0.35" stroke-width="2.01559"/>
<line y1="-1.0078" x2="1498.83" y2="-1.0078" transform="matrix(0 -1 -1 0 385.163 724.241)" stroke="#BDBDBD" stroke-opacity="0.35" stroke-width="2.01559"/>
<line y1="-1.0078" x2="35.0147" y2="-1.0078" transform="matrix(-1 0 0 1 35.0146 10.3741)" stroke="black" stroke-opacity="0.18" stroke-width="2.01559"/>
<line y1="-1.0078" x2="31.9209" y2="-1.0078" transform="matrix(0 -1 -1 0 15.9164 24.8838)" stroke="black" stroke-opacity="0.18" stroke-width="2.01559"/>
<line y1="-1.0078" x2="35.0147" y2="-1.0078" transform="matrix(-1 0 0 1 404.261 10.3741)" stroke="black" stroke-opacity="0.18" stroke-width="2.01559"/>
<line y1="-1.0078" x2="31.9209" y2="-1.0078" transform="matrix(0 -1 -1 0 385.163 24.8838)" stroke="black" stroke-opacity="0.18" stroke-width="2.01559"/>
<line y1="-1.0078" x2="35.0147" y2="-1.0078" transform="matrix(-1 0 0 1 773.507 10.3741)" stroke="black" stroke-opacity="0.18" stroke-width="2.01559"/>
<line y1="-1.0078" x2="31.9209" y2="-1.0078" transform="matrix(0 -1 -1 0 754.408 24.8838)" stroke="black" stroke-opacity="0.18" stroke-width="2.01559"/>
<line y1="-1.0078" x2="35.0147" y2="-1.0078" transform="matrix(-1 0 0 1 1142.75 10.3741)" stroke="black" stroke-opacity="0.18" stroke-width="2.01559"/>
<line y1="-1.0078" x2="31.9209" y2="-1.0078" transform="matrix(0 -1 -1 0 1123.65 24.8838)" stroke="black" stroke-opacity="0.18" stroke-width="2.01559"/>
<line y1="-1.0078" x2="35.0147" y2="-1.0078" transform="matrix(-1 0 0 1 1512 10.3741)" stroke="black" stroke-opacity="0.18" stroke-width="2.01559"/>
<line y1="-1.0078" x2="31.9209" y2="-1.0078" transform="matrix(0 -1 -1 0 1492.9 24.8838)" stroke="black" stroke-opacity="0.18" stroke-width="2.01559"/>
<line y1="-1.0078" x2="35.0147" y2="-1.0078" transform="matrix(-1 0 0 1 1512 368.759)" stroke="black" stroke-opacity="0.18" stroke-width="2.01559"/>
<line y1="-1.0078" x2="31.9209" y2="-1.0078" transform="matrix(0 -1 -1 0 1492.9 383.268)" stroke="black" stroke-opacity="0.18" stroke-width="2.01559"/>
<line y1="-1.0078" x2="35.0147" y2="-1.0078" transform="matrix(-1 0 0 1 1142.75 368.759)" stroke="black" stroke-opacity="0.18" stroke-width="2.01559"/>
<line y1="-1.0078" x2="31.9209" y2="-1.0078" transform="matrix(0 -1 -1 0 1123.65 383.268)" stroke="black" stroke-opacity="0.18" stroke-width="2.01559"/>
<line y1="-1.0078" x2="35.0147" y2="-1.0078" transform="matrix(-1 0 0 1 773.507 368.759)" stroke="black" stroke-opacity="0.18" stroke-width="2.01559"/>
<line y1="-1.0078" x2="31.9209" y2="-1.0078" transform="matrix(0 -1 -1 0 754.408 383.268)" stroke="black" stroke-opacity="0.18" stroke-width="2.01559"/>
<line y1="-1.0078" x2="35.0147" y2="-1.0078" transform="matrix(-1 0 0 1 404.261 368.759)" stroke="black" stroke-opacity="0.18" stroke-width="2.01559"/>
<line y1="-1.0078" x2="31.9209" y2="-1.0078" transform="matrix(0 -1 -1 0 385.163 383.268)" stroke="black" stroke-opacity="0.18" stroke-width="2.01559"/>
<line y1="-1.0078" x2="35.0147" y2="-1.0078" transform="matrix(-1 0 0 1 35.0146 368.759)" stroke="black" stroke-opacity="0.18" stroke-width="2.01559"/>
<line y1="-1.0078" x2="31.9209" y2="-1.0078" transform="matrix(0 -1 -1 0 15.9164 383.268)" stroke="black" stroke-opacity="0.18" stroke-width="2.01559"/>
<line y1="-1.0078" x2="35.0147" y2="-1.0078" transform="matrix(-1 0 0 1 35.0146 724.241)" stroke="black" stroke-opacity="0.18" stroke-width="2.01559"/>
<line y1="-1.0078" x2="31.9209" y2="-1.0078" transform="matrix(0 -1 -1 0 15.9164 738.75)" stroke="black" stroke-opacity="0.18" stroke-width="2.01559"/>
<line y1="-1.0078" x2="35.0147" y2="-1.0078" transform="matrix(-1 0 0 1 404.261 724.241)" stroke="black" stroke-opacity="0.18" stroke-width="2.01559"/>
<line y1="-1.0078" x2="31.9209" y2="-1.0078" transform="matrix(0 -1 -1 0 385.163 738.75)" stroke="black" stroke-opacity="0.18" stroke-width="2.01559"/>
<line y1="-1.0078" x2="35.0147" y2="-1.0078" transform="matrix(-1 0 0 1 773.507 724.241)" stroke="black" stroke-opacity="0.18" stroke-width="2.01559"/>
<line y1="-1.0078" x2="31.9209" y2="-1.0078" transform="matrix(0 -1 -1 0 754.408 738.75)" stroke="black" stroke-opacity="0.18" stroke-width="2.01559"/>
<line y1="-1.0078" x2="35.0147" y2="-1.0078" transform="matrix(-1 0 0 1 1142.75 724.241)" stroke="black" stroke-opacity="0.18" stroke-width="2.01559"/>
<line y1="-1.0078" x2="31.9209" y2="-1.0078" transform="matrix(0 -1 -1 0 1123.65 738.75)" stroke="black" stroke-opacity="0.18" stroke-width="2.01559"/>
</g>
</svg>
