<svg width="468" height="474" viewBox="0 0 468 474" fill="none" xmlns="http://www.w3.org/2000/svg">
<rect x="5.06152" y="4.23608" width="456.887" height="464.754" fill="white" fill-opacity="0.05"/>
<line y1="-1.0078" x2="457.162" y2="-1.0078" transform="matrix(-1 0 0 1 462.088 5.50049)" stroke="#BDBDBD" stroke-opacity="0.35" stroke-width="2.01559"/>
<line y1="-0.503898" x2="457.162" y2="-0.503898" transform="matrix(-1 0 0 1 462.088 27.5065)" stroke="#BDBDBD" stroke-opacity="0.35" stroke-width="1.0078"/>
<line y1="-0.503898" x2="457.162" y2="-0.503898" transform="matrix(-1 0 0 1 462.088 49.9617)" stroke="#BDBDBD" stroke-opacity="0.35" stroke-width="1.0078"/>
<line y1="-0.503898" x2="457.162" y2="-0.503898" transform="matrix(-1 0 0 1 462.088 71.9677)" stroke="#BDBDBD" stroke-opacity="0.35" stroke-width="1.0078"/>
<line y1="-1.0078" x2="457.162" y2="-1.0078" transform="matrix(-1 0 0 1 462.088 115.531)" stroke="#BDBDBD" stroke-opacity="0.35" stroke-width="2.01559"/>
<line y1="-0.503898" x2="457.162" y2="-0.503898" transform="matrix(-1 0 0 1 462.088 137.986)" stroke="#BDBDBD" stroke-opacity="0.35" stroke-width="1.0078"/>
<line y1="-0.503898" x2="457.162" y2="-0.503898" transform="matrix(-1 0 0 1 462.088 159.992)" stroke="#BDBDBD" stroke-opacity="0.35" stroke-width="1.0078"/>
<line y1="-0.503898" x2="457.162" y2="-0.503898" transform="matrix(-1 0 0 1 463.074 204.004)" stroke="#BDBDBD" stroke-opacity="0.35" stroke-width="1.0078"/>
<line y1="-0.503898" x2="457.162" y2="-0.503898" transform="matrix(-1 0 0 1 463.074 226.459)" stroke="#BDBDBD" stroke-opacity="0.35" stroke-width="1.0078"/>
<line y1="-1.0078" x2="457.162" y2="-1.0078" transform="matrix(-1 0 0 1 463.074 248.465)" stroke="#BDBDBD" stroke-opacity="0.35" stroke-width="2.01559"/>
<line y1="-0.503898" x2="457.162" y2="-0.503898" transform="matrix(-1 0 0 1 463.074 292.477)" stroke="#BDBDBD" stroke-opacity="0.35" stroke-width="1.0078"/>
<line y1="-0.503898" x2="457.162" y2="-0.503898" transform="matrix(-1 0 0 1 463.074 314.933)" stroke="#BDBDBD" stroke-opacity="0.35" stroke-width="1.0078"/>
<line y1="-0.503898" x2="457.162" y2="-0.503898" transform="matrix(-1 0 0 1 463.074 336.938)" stroke="#BDBDBD" stroke-opacity="0.35" stroke-width="1.0078"/>
<line y1="-0.503898" x2="457.162" y2="-0.503898" transform="matrix(-1 0 0 1 462.088 93.9738)" stroke="#BDBDBD" stroke-opacity="0.35" stroke-width="1.0078"/>
<line y1="-0.503898" x2="463.924" y2="-0.503898" transform="matrix(0 -1 -1 0 441.398 469.313)" stroke="#BDBDBD" stroke-opacity="0.35" stroke-width="1.0078"/>
<line y1="-0.503898" x2="463.924" y2="-0.503898" transform="matrix(0 -1 -1 0 416.766 469.313)" stroke="#BDBDBD" stroke-opacity="0.35" stroke-width="1.0078"/>
<line y1="-0.503898" x2="463.924" y2="-0.503898" transform="matrix(0 -1 -1 0 392.627 469.313)" stroke="#BDBDBD" stroke-opacity="0.35" stroke-width="1.0078"/>
<line y1="-0.503898" x2="463.924" y2="-0.503898" transform="matrix(0 -1 -1 0 368.488 469.313)" stroke="#BDBDBD" stroke-opacity="0.35" stroke-width="1.0078"/>
<line y1="-0.503898" x2="463.924" y2="-0.503898" transform="matrix(0 -1 -1 0 327.107 469.313)" stroke="#BDBDBD" stroke-opacity="0.35" stroke-width="1.0078"/>
<line y1="-0.503898" x2="463.924" y2="-0.503898" transform="matrix(0 -1 -1 0 302.476 469.313)" stroke="#BDBDBD" stroke-opacity="0.35" stroke-width="1.0078"/>
<line y1="-0.503898" x2="463.924" y2="-0.503898" transform="matrix(0 -1 -1 0 278.337 469.313)" stroke="#BDBDBD" stroke-opacity="0.35" stroke-width="1.0078"/>
<line y1="-0.503898" x2="463.924" y2="-0.503898" transform="matrix(0 -1 -1 0 254.198 469.313)" stroke="#BDBDBD" stroke-opacity="0.35" stroke-width="1.0078"/>
<line y1="-0.503898" x2="463.924" y2="-0.503898" transform="matrix(0 -1 -1 0 212.816 469.313)" stroke="#BDBDBD" stroke-opacity="0.35" stroke-width="1.0078"/>
<line y1="-0.503898" x2="463.924" y2="-0.503898" transform="matrix(0 -1 -1 0 188.185 469.313)" stroke="#BDBDBD" stroke-opacity="0.35" stroke-width="1.0078"/>
<line y1="-0.503898" x2="463.924" y2="-0.503898" transform="matrix(0 -1 -1 0 164.046 469.313)" stroke="#BDBDBD" stroke-opacity="0.35" stroke-width="1.0078"/>
<line y1="-0.503898" x2="463.924" y2="-0.503898" transform="matrix(0 -1 -1 0 139.907 469.313)" stroke="#BDBDBD" stroke-opacity="0.35" stroke-width="1.0078"/>
<line y1="-0.503898" x2="463.924" y2="-0.503898" transform="matrix(0 -1 -1 0 97.0479 469.313)" stroke="#BDBDBD" stroke-opacity="0.35" stroke-width="1.0078"/>
<line y1="-0.503898" x2="463.924" y2="-0.503898" transform="matrix(0 -1 -1 0 72.4165 469.313)" stroke="#BDBDBD" stroke-opacity="0.35" stroke-width="1.0078"/>
<line y1="-0.503898" x2="463.924" y2="-0.503898" transform="matrix(0 -1 -1 0 48.2773 469.313)" stroke="#BDBDBD" stroke-opacity="0.35" stroke-width="1.0078"/>
<line y1="-0.503898" x2="463.924" y2="-0.503898" transform="matrix(0 -1 -1 0 24.1382 469.313)" stroke="#BDBDBD" stroke-opacity="0.35" stroke-width="1.0078"/>
<line y1="-1.0078" x2="457.162" y2="-1.0078" transform="matrix(-1 0 0 1 462.088 359.394)" stroke="#BDBDBD" stroke-opacity="0.35" stroke-width="2.01559"/>
<line y1="-0.503898" x2="457.162" y2="-0.503898" transform="matrix(-1 0 0 1 462.088 270.92)" stroke="#BDBDBD" stroke-opacity="0.35" stroke-width="1.0078"/>
<line y1="-0.503898" x2="457.162" y2="-0.503898" transform="matrix(-1 0 0 1 462.088 182.447)" stroke="#BDBDBD" stroke-opacity="0.35" stroke-width="1.0078"/>
<line y1="-1.0078" x2="463.924" y2="-1.0078" transform="matrix(0 -1 -1 0 462.088 469.424)" stroke="#BDBDBD" stroke-opacity="0.35" stroke-width="2.01559"/>
<line y1="-1.0078" x2="10.8379" y2="-1.0078" transform="matrix(-1 0 0 1 468 469.313)" stroke="black" stroke-opacity="0.18" stroke-width="2.01559"/>
<line y1="-1.0078" x2="9.88027" y2="-1.0078" transform="matrix(0 -1 -1 0 462.088 473.804)" stroke="black" stroke-opacity="0.18" stroke-width="2.01559"/>
<line y1="-0.503898" x2="457.162" y2="-0.503898" transform="matrix(-1 0 0 1 462.088 402.396)" stroke="#BDBDBD" stroke-opacity="0.35" stroke-width="1.0078"/>
<line y1="-0.503898" x2="457.162" y2="-0.503898" transform="matrix(-1 0 0 1 462.088 424.852)" stroke="#BDBDBD" stroke-opacity="0.35" stroke-width="1.0078"/>
<line y1="-0.503898" x2="457.162" y2="-0.503898" transform="matrix(-1 0 0 1 462.088 446.858)" stroke="#BDBDBD" stroke-opacity="0.35" stroke-width="1.0078"/>
<line y1="-1.0078" x2="457.162" y2="-1.0078" transform="matrix(-1 0 0 1 462.088 469.313)" stroke="#BDBDBD" stroke-opacity="0.35" stroke-width="2.01559"/>
<line y1="-0.503898" x2="457.162" y2="-0.503898" transform="matrix(-1 0 0 1 462.088 380.839)" stroke="#BDBDBD" stroke-opacity="0.35" stroke-width="1.0078"/>
<line y1="-1.0078" x2="463.924" y2="-1.0078" transform="matrix(0 -1 -1 0 347.797 469.313)" stroke="#BDBDBD" stroke-opacity="0.35" stroke-width="2.01559"/>
<line y1="-1.0078" x2="463.924" y2="-1.0078" transform="matrix(0 -1 -1 0 4.92627 469.424)" stroke="#BDBDBD" stroke-opacity="0.35" stroke-width="2.01559"/>
<line y1="-1.0078" x2="463.924" y2="-1.0078" transform="matrix(0 -1 -1 0 233.507 469.313)" stroke="#BDBDBD" stroke-opacity="0.35" stroke-width="2.01559"/>
<line y1="-1.0078" x2="463.924" y2="-1.0078" transform="matrix(0 -1 -1 0 119.217 469.313)" stroke="#BDBDBD" stroke-opacity="0.35" stroke-width="2.01559"/>
<line y1="-1.0078" x2="10.8379" y2="-1.0078" transform="matrix(-1 0 0 1 468 5.38928)" stroke="black" stroke-opacity="0.18" stroke-width="2.01559"/>
<line y1="-1.0078" x2="9.88027" y2="-1.0078" transform="matrix(0 -1 -1 0 462.088 9.88025)" stroke="black" stroke-opacity="0.18" stroke-width="2.01559"/>
<line y1="-1.0078" x2="10.8379" y2="-1.0078" transform="matrix(-1 0 0 1 353.709 5.38928)" stroke="black" stroke-opacity="0.18" stroke-width="2.01559"/>
<line y1="-1.0078" x2="9.88027" y2="-1.0078" transform="matrix(0 -1 -1 0 347.797 9.88025)" stroke="black" stroke-opacity="0.18" stroke-width="2.01559"/>
<line y1="-1.0078" x2="10.8379" y2="-1.0078" transform="matrix(-1 0 0 1 239.419 5.38928)" stroke="black" stroke-opacity="0.18" stroke-width="2.01559"/>
<line y1="-1.0078" x2="9.88027" y2="-1.0078" transform="matrix(0 -1 -1 0 233.507 9.88025)" stroke="black" stroke-opacity="0.18" stroke-width="2.01559"/>
<line y1="-1.0078" x2="10.8379" y2="-1.0078" transform="matrix(-1 0 0 1 125.128 5.38928)" stroke="black" stroke-opacity="0.18" stroke-width="2.01559"/>
<line y1="-1.0078" x2="9.88027" y2="-1.0078" transform="matrix(0 -1 -1 0 119.217 9.88025)" stroke="black" stroke-opacity="0.18" stroke-width="2.01559"/>
<line y1="-1.0078" x2="10.8379" y2="-1.0078" transform="matrix(-1 0 0 1 10.8379 5.38928)" stroke="black" stroke-opacity="0.18" stroke-width="2.01559"/>
<line y1="-1.0078" x2="9.88027" y2="-1.0078" transform="matrix(0 -1 -1 0 4.92627 9.88025)" stroke="black" stroke-opacity="0.18" stroke-width="2.01559"/>
<line y1="-1.0078" x2="10.8379" y2="-1.0078" transform="matrix(-1 0 0 1 468 115.42)" stroke="black" stroke-opacity="0.18" stroke-width="2.01559"/>
<line y1="-1.0078" x2="9.88027" y2="-1.0078" transform="matrix(0 -1 -1 0 462.088 119.911)" stroke="black" stroke-opacity="0.18" stroke-width="2.01559"/>
<line y1="-1.0078" x2="10.8379" y2="-1.0078" transform="matrix(-1 0 0 1 353.709 115.42)" stroke="black" stroke-opacity="0.18" stroke-width="2.01559"/>
<line y1="-1.0078" x2="9.88027" y2="-1.0078" transform="matrix(0 -1 -1 0 347.797 119.911)" stroke="black" stroke-opacity="0.18" stroke-width="2.01559"/>
<line y1="-1.0078" x2="10.8379" y2="-1.0078" transform="matrix(-1 0 0 1 239.419 115.42)" stroke="black" stroke-opacity="0.18" stroke-width="2.01559"/>
<line y1="-1.0078" x2="9.88027" y2="-1.0078" transform="matrix(0 -1 -1 0 233.507 119.911)" stroke="black" stroke-opacity="0.18" stroke-width="2.01559"/>
<line y1="-1.0078" x2="10.8379" y2="-1.0078" transform="matrix(-1 0 0 1 125.128 115.42)" stroke="black" stroke-opacity="0.18" stroke-width="2.01559"/>
<line y1="-1.0078" x2="9.88027" y2="-1.0078" transform="matrix(0 -1 -1 0 119.217 119.911)" stroke="black" stroke-opacity="0.18" stroke-width="2.01559"/>
<line y1="-1.0078" x2="10.8379" y2="-1.0078" transform="matrix(-1 0 0 1 10.8379 115.42)" stroke="black" stroke-opacity="0.18" stroke-width="2.01559"/>
<line y1="-1.0078" x2="9.88027" y2="-1.0078" transform="matrix(0 -1 -1 0 4.92627 119.911)" stroke="black" stroke-opacity="0.18" stroke-width="2.01559"/>
<line y1="-1.0078" x2="10.8379" y2="-1.0078" transform="matrix(-1 0 0 1 10.8379 248.354)" stroke="black" stroke-opacity="0.18" stroke-width="2.01559"/>
<line y1="-1.0078" x2="9.88027" y2="-1.0078" transform="matrix(0 -1 -1 0 4.92627 252.845)" stroke="black" stroke-opacity="0.18" stroke-width="2.01559"/>
<line y1="-1.0078" x2="10.8379" y2="-1.0078" transform="matrix(-1 0 0 1 125.128 248.354)" stroke="black" stroke-opacity="0.18" stroke-width="2.01559"/>
<line y1="-1.0078" x2="9.88027" y2="-1.0078" transform="matrix(0 -1 -1 0 119.217 252.845)" stroke="black" stroke-opacity="0.18" stroke-width="2.01559"/>
<line y1="-1.0078" x2="10.8379" y2="-1.0078" transform="matrix(-1 0 0 1 239.419 248.354)" stroke="black" stroke-opacity="0.18" stroke-width="2.01559"/>
<line y1="-1.0078" x2="9.88027" y2="-1.0078" transform="matrix(0 -1 -1 0 233.507 252.845)" stroke="black" stroke-opacity="0.18" stroke-width="2.01559"/>
<line y1="-1.0078" x2="10.8379" y2="-1.0078" transform="matrix(-1 0 0 1 353.709 248.354)" stroke="black" stroke-opacity="0.18" stroke-width="2.01559"/>
<line y1="-1.0078" x2="9.88027" y2="-1.0078" transform="matrix(0 -1 -1 0 347.797 252.845)" stroke="black" stroke-opacity="0.18" stroke-width="2.01559"/>
<line y1="-1.0078" x2="10.8379" y2="-1.0078" transform="matrix(-1 0 0 1 468 248.354)" stroke="black" stroke-opacity="0.18" stroke-width="2.01559"/>
<line y1="-1.0078" x2="9.88027" y2="-1.0078" transform="matrix(0 -1 -1 0 462.088 252.845)" stroke="black" stroke-opacity="0.18" stroke-width="2.01559"/>
<line y1="-1.0078" x2="10.8379" y2="-1.0078" transform="matrix(-1 0 0 1 468 359.283)" stroke="black" stroke-opacity="0.18" stroke-width="2.01559"/>
<line y1="-1.0078" x2="9.88027" y2="-1.0078" transform="matrix(0 -1 -1 0 462.088 363.774)" stroke="black" stroke-opacity="0.18" stroke-width="2.01559"/>
<line y1="-1.0078" x2="10.8379" y2="-1.0078" transform="matrix(-1 0 0 1 353.709 359.283)" stroke="black" stroke-opacity="0.18" stroke-width="2.01559"/>
<line y1="-1.0078" x2="9.88027" y2="-1.0078" transform="matrix(0 -1 -1 0 347.797 363.774)" stroke="black" stroke-opacity="0.18" stroke-width="2.01559"/>
<line y1="-1.0078" x2="10.8379" y2="-1.0078" transform="matrix(-1 0 0 1 239.419 359.283)" stroke="black" stroke-opacity="0.18" stroke-width="2.01559"/>
<line y1="-1.0078" x2="9.88027" y2="-1.0078" transform="matrix(0 -1 -1 0 233.507 363.774)" stroke="black" stroke-opacity="0.18" stroke-width="2.01559"/>
<line y1="-1.0078" x2="10.8379" y2="-1.0078" transform="matrix(-1 0 0 1 125.128 359.283)" stroke="black" stroke-opacity="0.18" stroke-width="2.01559"/>
<line y1="-1.0078" x2="9.88027" y2="-1.0078" transform="matrix(0 -1 -1 0 119.217 363.774)" stroke="black" stroke-opacity="0.18" stroke-width="2.01559"/>
<line y1="-1.0078" x2="10.8379" y2="-1.0078" transform="matrix(-1 0 0 1 10.8379 359.283)" stroke="black" stroke-opacity="0.18" stroke-width="2.01559"/>
<line y1="-1.0078" x2="9.88027" y2="-1.0078" transform="matrix(0 -1 -1 0 4.92627 363.774)" stroke="black" stroke-opacity="0.18" stroke-width="2.01559"/>
<line y1="-1.0078" x2="10.8379" y2="-1.0078" transform="matrix(-1 0 0 1 10.8379 469.313)" stroke="black" stroke-opacity="0.18" stroke-width="2.01559"/>
<line y1="-1.0078" x2="9.88027" y2="-1.0078" transform="matrix(0 -1 -1 0 4.92627 473.804)" stroke="black" stroke-opacity="0.18" stroke-width="2.01559"/>
<line y1="-1.0078" x2="10.8379" y2="-1.0078" transform="matrix(-1 0 0 1 125.128 469.313)" stroke="black" stroke-opacity="0.18" stroke-width="2.01559"/>
<line y1="-1.0078" x2="9.88027" y2="-1.0078" transform="matrix(0 -1 -1 0 119.217 473.804)" stroke="black" stroke-opacity="0.18" stroke-width="2.01559"/>
<line y1="-1.0078" x2="10.8379" y2="-1.0078" transform="matrix(-1 0 0 1 239.419 469.313)" stroke="black" stroke-opacity="0.18" stroke-width="2.01559"/>
<line y1="-1.0078" x2="9.88027" y2="-1.0078" transform="matrix(0 -1 -1 0 233.507 473.804)" stroke="black" stroke-opacity="0.18" stroke-width="2.01559"/>
<line y1="-1.0078" x2="10.8379" y2="-1.0078" transform="matrix(-1 0 0 1 353.709 469.313)" stroke="black" stroke-opacity="0.18" stroke-width="2.01559"/>
<line y1="-1.0078" x2="9.88027" y2="-1.0078" transform="matrix(0 -1 -1 0 347.797 473.804)" stroke="black" stroke-opacity="0.18" stroke-width="2.01559"/>
</svg>
