<svg width="34" height="29" viewBox="0 0 34 29" fill="none" xmlns="http://www.w3.org/2000/svg">
<mask id="mask0_106_841" style="mask-type:luminance" maskUnits="userSpaceOnUse" x="2" y="0" width="30" height="29">
<path d="M31.1216 0H2V28.9789H31.1216V0Z" fill="white"/>
</mask>
<g mask="url(#mask0_106_841)">
<path d="M16.5608 2.60923C20.4513 2.60923 20.912 2.62621 22.442 2.69413C23.864 2.75639 24.6319 2.99411 25.1438 3.1922C25.8206 3.45256 26.3098 3.76952 26.816 4.27326C27.3279 4.78265 27.6407 5.26374 27.9023 5.93727C28.1014 6.44665 28.3403 7.21641 28.4028 8.62576C28.4711 10.1539 28.4882 10.6124 28.4882 14.4781C28.4882 18.3495 28.4711 18.808 28.4028 20.3305C28.3403 21.7455 28.1014 22.5096 27.9023 23.019C27.6407 23.6925 27.3222 24.1793 26.816 24.683C26.3041 25.1924 25.8206 25.5037 25.1438 25.764C24.6319 25.9622 23.8583 26.1999 22.442 26.2621C20.9063 26.33 20.4456 26.347 16.5608 26.347C12.6704 26.347 12.2096 26.33 10.6796 26.2621C9.25764 26.1999 8.48982 25.9622 7.97788 25.764C7.30104 25.5037 6.81189 25.1867 6.30568 24.683C5.79378 24.1736 5.48094 23.6925 5.2193 23.019C5.02023 22.5096 4.78135 21.7398 4.71878 20.3305C4.65052 18.8023 4.63346 18.3439 4.63346 14.4781C4.63346 10.6067 4.65052 10.1483 4.71878 8.62576C4.78135 7.21075 5.02023 6.44665 5.2193 5.93727C5.48094 5.26374 5.79947 4.77699 6.30568 4.27326C6.81758 3.76386 7.30104 3.45256 7.97788 3.1922C8.48982 2.99411 9.26337 2.75639 10.6796 2.69413C12.2096 2.62621 12.6704 2.60923 16.5608 2.60923ZM16.5608 0C12.6078 0 12.113 0.0169798 10.5602 0.0848989C9.01308 0.152818 7.94947 0.401855 7.02802 0.758432C6.06679 1.13199 5.25344 1.6244 4.44576 2.43377C3.6324 3.23748 3.13756 4.04686 2.76217 4.99771C2.40384 5.9203 2.15357 6.97305 2.08532 8.51256C2.01706 10.0634 2 10.5558 2 14.4895C2 18.4231 2.01706 18.9155 2.08532 20.4607C2.15357 22.0002 2.40384 23.0586 2.76217 23.9755C3.13756 24.932 3.6324 25.7414 4.44576 26.5451C5.25344 27.3488 6.06679 27.8469 7.02233 28.2148C7.94947 28.5714 9.0074 28.8204 10.5545 28.8883C12.1073 28.9563 12.6021 28.9732 16.5551 28.9732C20.5082 28.9732 21.003 28.9563 22.5558 28.8883C24.1029 28.8204 25.1665 28.5714 26.0879 28.2148C27.0435 27.8469 27.8569 27.3488 28.6645 26.5451C29.4722 25.7414 29.9727 24.932 30.3424 23.9812C30.7008 23.0586 30.951 22.0058 31.0192 20.4664C31.0875 18.9212 31.1046 18.4288 31.1046 14.4951C31.1046 10.5615 31.0875 10.069 31.0192 8.52387C30.951 6.98436 30.7008 5.92596 30.3424 5.00902C29.9841 4.04686 29.4892 3.23748 28.6759 2.43377C27.8682 1.63006 27.0548 1.13199 26.0993 0.764092C25.1722 0.407516 24.1142 0.158478 22.5671 0.0905593C21.0087 0.0169798 20.5139 0 16.5608 0Z" fill="#F3F1F1"/>
<path d="M16.5608 7.04688C12.4314 7.04688 9.08133 10.3806 9.08133 14.4897C9.08133 18.5988 12.4314 21.9325 16.5608 21.9325C20.6901 21.9325 24.0403 18.5988 24.0403 14.4897C24.0403 10.3806 20.6901 7.04688 16.5608 7.04688ZM16.5608 19.3176C13.8818 19.3176 11.7091 17.1555 11.7091 14.4897C11.7091 11.8239 13.8818 9.66176 16.5608 9.66176C19.2398 9.66176 21.4125 11.8239 21.4125 14.4897C21.4125 17.1555 19.2398 19.3176 16.5608 19.3176Z" fill="#F3F1F1"/>
<path d="M26.0823 6.75272C26.0823 7.71494 25.2973 8.49035 24.3361 8.49035C23.3692 8.49035 22.59 7.70924 22.59 6.75272C22.59 5.79055 23.3749 5.01514 24.3361 5.01514C25.2973 5.01514 26.0823 5.7962 26.0823 6.75272Z" fill="#F3F1F1"/>
</g>
</svg>
