<svg width="754" height="305" viewBox="0 0 754 305" fill="none" xmlns="http://www.w3.org/2000/svg">
<path d="M748.736 183.529L715.242 301.294H704.576L738.069 183.529H748.736Z" fill="#EF4D25" stroke="#EF4E25" stroke-width="6.58762" stroke-miterlimit="10"/>
<path d="M698.722 183.529L665.228 301.294H654.562L688.055 183.529H698.722Z" fill="#EF4D25" stroke="#EF4E25" stroke-width="6.58762" stroke-miterlimit="10"/>
<path d="M648.708 183.529L615.214 301.294H604.548L638.041 183.529H648.708Z" fill="#EF4D25" stroke="#EF4E25" stroke-width="6.58762" stroke-miterlimit="10"/>
<path d="M598.693 183.529L565.2 301.294H554.534L588.027 183.529H598.693Z" fill="#EF4D25" stroke="#EF4E25" stroke-width="6.58762" stroke-miterlimit="10"/>
<path d="M548.679 183.529L515.186 301.294H504.52L538.013 183.529H548.679Z" fill="#EF4D25" stroke="#EF4E25" stroke-width="6.58762" stroke-miterlimit="10"/>
<path d="M498.665 183.529L465.172 301.294H454.506L487.999 183.529H498.665Z" fill="#EF4D25" stroke="#EF4E25" stroke-width="6.58762" stroke-miterlimit="10"/>
<path d="M448.651 183.529L415.158 301.294H404.491L437.985 183.529H448.651Z" fill="#EF4D25" stroke="#EF4E25" stroke-width="6.58762" stroke-miterlimit="10"/>
<path d="M398.637 183.529L365.144 301.294H354.478L387.971 183.529H398.637Z" fill="#EF4D25" stroke="#EF4E25" stroke-width="6.58762" stroke-miterlimit="10"/>
<path d="M348.623 183.529L315.13 301.294H304.463L337.957 183.529H348.623Z" fill="#EF4D25" stroke="#EF4E25" stroke-width="6.58762" stroke-miterlimit="10"/>
<path d="M298.609 183.529L265.116 301.294H254.449L287.943 183.529H298.609Z" fill="#EF4D25" stroke="#EF4E25" stroke-width="6.58762" stroke-miterlimit="10"/>
<path d="M248.595 183.529L215.101 301.294H204.435L237.928 183.529H248.595Z" fill="#EF4D25" stroke="#EF4E25" stroke-width="6.58762" stroke-miterlimit="10"/>
<path d="M198.563 183.529L165.07 301.294H154.404L187.897 183.529H198.563Z" fill="#EF4D25" stroke="#EF4E25" stroke-width="6.58762" stroke-miterlimit="10"/>
<path d="M148.549 183.529L115.056 301.294H104.389L137.883 183.529H148.549Z" fill="#EF4D25" stroke="#EF4E25" stroke-width="6.58762" stroke-miterlimit="10"/>
<path d="M98.5352 183.529L65.0419 301.294H54.3755L87.8688 183.529H98.5352Z" fill="#EF4D25" stroke="#EF4E25" stroke-width="6.58762" stroke-miterlimit="10"/>
<path d="M48.521 183.529L15.0278 301.294H4.36133L37.8546 183.529H48.521Z" fill="#EF4D25" stroke="#EF4E25" stroke-width="6.58762" stroke-miterlimit="10"/>
<path d="M548.679 3.29382L515.186 121.059H504.52L538.013 3.29382H548.679Z" fill="#EF4D25" stroke="#EF4E25" stroke-width="6.58762" stroke-miterlimit="10"/>
<path d="M498.665 3.29382L465.172 121.059H454.506L487.999 3.29382H498.665Z" fill="#EF4D25" stroke="#EF4E25" stroke-width="6.58762" stroke-miterlimit="10"/>
<path d="M448.651 3.29382L415.158 121.059H404.491L437.985 3.29382H448.651Z" fill="#EF4D25" stroke="#EF4E25" stroke-width="6.58762" stroke-miterlimit="10"/>
<path d="M398.637 3.29382L365.144 121.059H354.478L387.971 3.29382H398.637Z" fill="#EF4D25" stroke="#EF4E25" stroke-width="6.58762" stroke-miterlimit="10"/>
<path d="M348.623 3.29382L315.13 121.059H304.463L337.957 3.29382H348.623Z" fill="#EF4D25" stroke="#EF4E25" stroke-width="6.58762" stroke-miterlimit="10"/>
<path d="M298.609 3.29382L265.116 121.059H254.449L287.943 3.29382H298.609Z" fill="#EF4D25" stroke="#EF4E25" stroke-width="6.58762" stroke-miterlimit="10"/>
<path d="M248.595 3.29382L215.101 121.059H204.435L237.928 3.29382H248.595Z" fill="#EF4D25" stroke="#EF4E25" stroke-width="6.58762" stroke-miterlimit="10"/>
<path d="M198.563 3.29382L165.07 121.059H154.404L187.897 3.29382H198.563Z" fill="#EF4D25" stroke="#EF4E25" stroke-width="6.58762" stroke-miterlimit="10"/>
<path d="M148.549 3.29382L115.056 121.059H104.389L137.883 3.29382H148.549Z" fill="#EF4D25" stroke="#EF4E25" stroke-width="6.58762" stroke-miterlimit="10"/>
<path d="M98.5352 3.29382L65.0419 121.059H54.3755L87.8688 3.29382H98.5352Z" fill="#EF4D25" stroke="#EF4E25" stroke-width="6.58762" stroke-miterlimit="10"/>
<path d="M48.521 3.29395L15.0278 121.059H4.36133L37.8546 3.29395H48.521Z" fill="#EF4D25" stroke="#EF4E25" stroke-width="6.58762" stroke-miterlimit="10"/>
</svg>
