<svg width="34" height="29" viewBox="0 0 34 29" fill="none" xmlns="http://www.w3.org/2000/svg">
<path d="M29.0459 0H5.59036C4.15979 0 3 1.15408 3 2.57768V25.9181C3 27.3418 4.15979 28.4959 5.59036 28.4959H29.0458C30.4765 28.4959 31.6363 27.3418 31.6363 25.9181V2.57768C31.6363 1.15408 30.4765 0 29.0459 0ZM11.8613 24.6052C11.8613 25.0196 11.5238 25.3554 11.1074 25.3554H7.89853C7.48217 25.3554 7.1447 25.0196 7.1447 24.6052V11.2196C7.1447 10.8053 7.48217 10.4694 7.89853 10.4694H11.1074C11.5238 10.4694 11.8613 10.8053 11.8613 11.2196V24.6052ZM9.50299 9.2076C7.81935 9.2076 6.4545 7.84943 6.4545 6.17405C6.4545 4.4987 7.81935 3.14052 9.50299 3.14052C11.1866 3.14052 12.5515 4.4987 12.5515 6.17405C12.5515 7.84943 11.1867 9.2076 9.50299 9.2076ZM28.6309 24.6657C28.6309 25.0466 28.3206 25.3554 27.9378 25.3554H24.4945C24.1117 25.3554 23.8013 25.0466 23.8013 24.6657V18.387C23.8013 17.4504 24.0774 14.2826 21.3415 14.2826C19.2194 14.2826 18.7889 16.4509 18.7025 17.4239V24.6657C18.7025 25.0466 18.3922 25.3554 18.0094 25.3554H14.679C14.2963 25.3554 13.9859 25.0466 13.9859 24.6657V11.1592C13.9859 10.7782 14.2963 10.4694 14.679 10.4694H18.0094C18.3921 10.4694 18.7025 10.7782 18.7025 11.1592V12.3269C19.4894 11.1518 20.6588 10.2448 23.1488 10.2448C28.6625 10.2448 28.6309 15.3708 28.6309 18.1873V24.6657Z" fill="#F3F1F1"/>
</svg>
